<?xml version="1.0" standalone="no"?><!DOCTYPE svg PUBLIC "-//W3C//DTD SVG 1.1//EN" "http://www.w3.org/Graphics/SVG/1.1/DTD/svg11.dtd"><svg t="1557640745636" class="icon" style="" viewBox="0 0 1024 1024" version="1.1" xmlns="http://www.w3.org/2000/svg" p-id="6373" xmlns:xlink="http://www.w3.org/1999/xlink" width="200" height="200"><defs><style type="text/css"></style></defs><path d="M489.704974 353.043852l30.543714 27.966981-15.271857 16.5288 197.182926 0 0.628471 45.784147-122.740479 0.628471 0 59.139166 121.452113 1.916838 0 29.883819-120.823641 0-0.628471 106.840151c40.693528 1.256943 54.048547-15.900328 54.048547-15.900328l-13.98349-27.998404 73.122656-42.610366 38.77669 86.477675 0-260.124344c-46.412619-119.566698-242.338601-28.626876-242.338601-28.626876zM511.984288 0c-282.749317 0-511.984288 229.266395-511.984288 512.015712s229.234971 511.984288 511.984288 511.984288c282.780741 0 512.015712-229.234971 512.015712-511.984288s-229.234971-512.015712-512.015712-512.015712zM256.322092 242.935649c33.717495 0 61.056004 27.338509 61.056004 61.056004s-27.338509 61.056004-61.056004 61.056004-61.056004-27.338509-61.056004-61.056004 27.338509-61.056004 61.056004-61.056004zM318.635039 583.850002l-89.054408 183.168012-95.40197-61.056004 125.945684-137.383865c17.785743-22.907785 0-50.874766 0-50.874766l-92.856661-80.130113 40.724952-55.965385c0 0 44.527204 34.345966 93.485132 82.675423s17.157271 119.566698 17.157271 119.566698zM844.005769 675.418296c0 0-7.635928 108.128518-113.187713 105.583208s-105.614632 0-105.614632 0l-30.543714 0.031424c0 0-17.785743-24.824623 0.659895-61.715899 0 0 38.77669-6.378985 45.124252 15.271857l44.527204 0c0 0 43.238838-8.2644 46.412619-76.327861l-61.056004 45.784147-22.24789-45.155676c0 0-80.790008 64.858256-146.936631 60.427532l-89.68288 0c0 0-58.510694-15.240433-61.684475-92.228189l0-59.799061 91.599718 0c0 0-9.552766 94.145027 44.527204 89.68288l1.256943-120.855065-137.383865 0 0-30.543714 137.383865 0-0.628471-60.427532-19.734004-0.628471-55.965385 55.336913-36.891276-33.0576 69.320404-68.691932-1.916838-31.172185-87.13757 80.130113-52.791604-52.791604c0 0 69.948875-45.155676 92.856661-151.367355l78.213275 19.734004-12.695124 41.322c0 0 340.882929-124.657317 384.15319 92.856661l0 278.569982z" p-id="6374" fill="#d81e06"></path></svg>